# xmcd
# Copyright (C) 1995-1998 Ti Kan
#
# Track frame offsets:
#       150
#       15418
#       29788
#       42826
#       57734
#       75510
#       87962
#       102077
#       116374
#       127528
#       143232
#       150469
#       164225
#       177676
#
# Disc length: 2571 seconds
#
# Revision: 0
# Processed by: cddbd v1.5.1PL0 Copyright (c) Steve Scherf et al.
# Submitted via: CD-Transfer v1.0
#
DISCID=b30a090e
DTITLE=Stefan Winkler - Unterwegs
DYEAR=05
DGENRE=
TTITLE0=Du Gibts Meinen Worten Ein Zuhaus
TTITLE1=Einfach Sein
TTITLE2=Geheime Wünsche
TTITLE3=Unterwegs
TTITLE4=Du Bisch A Königin
TTITLE5=Wenn Ich 08/15 Wär`
TTITLE6=Nashville
TTITLE7=Es Isch Herbscht In New Orleans 2004
TTITLE8=Kleine Wolkentänzerin
TTITLE9=Girasoli
TTITLE10=Waltraud
TTITLE11=Denn Da Gibt Es Indianer
TTITLE12=Liebe Ist Es Nicht
TTITLE13=Habt Dank Für Eure Stille
EXTD=
EXTT0=
EXTT1=
EXTT2=
EXTT3=
EXTT4=
EXTT5=
EXTT6=
EXTT7=
EXTT8=
EXTT9=
EXTT10=
EXTT11=
EXTT12=
EXTT13=
PLAYORDER=
